<svg width="178" height="16" viewBox="0 0 178 16" fill="none" xmlns="http://www.w3.org/2000/svg">
<path d="M0.18679 12V3.27273H1.16974V4.61364H1.26065C1.4349 4.16288 1.72467 3.80871 2.12997 3.55114C2.53906 3.28977 3.02959 3.15909 3.60156 3.15909C4.20384 3.15909 4.69815 3.30114 5.08452 3.58523C5.47467 3.86553 5.76634 4.25189 5.95952 4.74432H6.03338C6.23035 4.25947 6.55043 3.875 6.99361 3.59091C7.44058 3.30303 7.98224 3.15909 8.61861 3.15909C9.42921 3.15909 10.0694 3.41477 10.5391 3.92614C11.0088 4.43371 11.2436 5.17614 11.2436 6.15341V12H10.2322V6.15341C10.2322 5.46402 10.0561 4.94697 9.70384 4.60227C9.35156 4.25758 8.88755 4.08523 8.31179 4.08523C7.64512 4.08523 7.13187 4.28977 6.77202 4.69886C6.41217 5.10795 6.23224 5.62689 6.23224 6.25568V12H5.19815V6.0625C5.19815 5.47159 5.03338 4.99432 4.70384 4.63068C4.37429 4.26705 3.91027 4.08523 3.31179 4.08523C2.91027 4.08523 2.54853 4.18371 2.22656 4.38068C1.90838 4.57765 1.65649 4.85227 1.47088 5.20455C1.28906 5.55303 1.19815 5.95455 1.19815 6.40909V12H0.18679ZM16.3587 12.1989C15.8321 12.1989 15.3511 12.0966 14.9155 11.892C14.4799 11.6837 14.1333 11.3845 13.8757 10.9943C13.6181 10.6004 13.4893 10.1231 13.4893 9.5625C13.4893 9.13068 13.5708 8.76705 13.7337 8.47159C13.8965 8.17614 14.1276 7.93371 14.4268 7.74432C14.7261 7.55492 15.0803 7.4053 15.4893 7.29545C15.8984 7.18561 16.3492 7.10038 16.8416 7.03977C17.3303 6.97917 17.7431 6.92614 18.0803 6.88068C18.4212 6.83523 18.6806 6.76326 18.8587 6.66477C19.0367 6.56629 19.1257 6.4072 19.1257 6.1875V5.98295C19.1257 5.38826 18.9477 4.92045 18.5916 4.57955C18.2393 4.23485 17.7318 4.0625 17.0689 4.0625C16.4401 4.0625 15.9268 4.20076 15.5291 4.47727C15.1352 4.75379 14.8587 5.07955 14.6996 5.45455L13.7393 5.10795C13.9363 4.63068 14.209 4.25 14.5575 3.96591C14.906 3.67803 15.2962 3.47159 15.728 3.34659C16.1598 3.2178 16.5973 3.15341 17.0405 3.15341C17.3738 3.15341 17.7204 3.19697 18.0803 3.28409C18.4439 3.37121 18.781 3.52273 19.0916 3.73864C19.4022 3.95076 19.6541 4.24811 19.8473 4.63068C20.0405 5.00947 20.1371 5.49053 20.1371 6.07386V12H19.1257V10.6193H19.0632C18.942 10.8769 18.7621 11.1269 18.5234 11.3693C18.2848 11.6117 17.9856 11.8106 17.6257 11.9659C17.2659 12.1212 16.8435 12.1989 16.3587 12.1989ZM16.495 11.2727C17.0329 11.2727 17.4988 11.1534 17.8928 10.9148C18.2867 10.6761 18.5897 10.3598 18.8018 9.96591C19.0178 9.56818 19.1257 9.13068 19.1257 8.65341V7.39205C19.05 7.46402 18.9231 7.52841 18.745 7.58523C18.5708 7.64205 18.3681 7.69318 18.1371 7.73864C17.9098 7.7803 17.6825 7.81629 17.4553 7.84659C17.228 7.87689 17.0234 7.90341 16.8416 7.92614C16.3492 7.98674 15.9287 8.08144 15.5803 8.21023C15.2318 8.33902 14.9647 8.51705 14.7791 8.74432C14.5935 8.9678 14.5007 9.25568 14.5007 9.60795C14.5007 10.1383 14.6901 10.5492 15.0689 10.8409C15.4477 11.1288 15.9231 11.2727 16.495 11.2727ZM25.9695 12.1818C25.2536 12.1818 24.6267 11.9924 24.0888 11.6136C23.5509 11.2348 23.1304 10.7064 22.8274 10.0284C22.5282 9.35038 22.3786 8.56061 22.3786 7.65909C22.3786 6.76136 22.5282 5.97538 22.8274 5.30114C23.1304 4.62311 23.5528 4.09659 24.0945 3.72159C24.6361 3.3428 25.2668 3.15341 25.9865 3.15341C26.5168 3.15341 26.9581 3.24811 27.3104 3.4375C27.6626 3.62311 27.9448 3.85417 28.157 4.13068C28.3691 4.4072 28.5339 4.67614 28.6513 4.9375H28.7422V0.363636H29.7592V12H28.7706V10.3807H28.6513C28.5339 10.6458 28.3672 10.9186 28.1513 11.1989C27.9354 11.4754 27.6494 11.7083 27.2933 11.8977C26.9411 12.0871 26.4998 12.1818 25.9695 12.1818ZM26.0888 11.2557C26.6532 11.2557 27.1342 11.1023 27.532 10.7955C27.9297 10.4848 28.2327 10.0587 28.4411 9.51705C28.6532 8.97159 28.7592 8.34659 28.7592 7.64205C28.7592 6.94508 28.6551 6.32955 28.4467 5.79545C28.2384 5.25758 27.9354 4.83712 27.5376 4.53409C27.1399 4.22727 26.657 4.07386 26.0888 4.07386C25.5054 4.07386 25.013 4.23295 24.6115 4.55114C24.2138 4.86553 23.9107 5.29167 23.7024 5.82955C23.4979 6.36742 23.3956 6.97159 23.3956 7.64205C23.3956 8.32008 23.4998 8.93182 23.7081 9.47727C23.9164 10.0227 24.2195 10.4564 24.6172 10.7784C25.0187 11.0966 25.5092 11.2557 26.0888 11.2557ZM36.1683 12.1818C35.3539 12.1818 34.6494 11.9924 34.0547 11.6136C33.46 11.2311 32.9998 10.7027 32.674 10.0284C32.352 9.35038 32.1911 8.57008 32.1911 7.6875C32.1911 6.80871 32.352 6.02841 32.674 5.34659C32.9998 4.66098 33.4486 4.125 34.0206 3.73864C34.5964 3.34848 35.2611 3.15341 36.0149 3.15341C36.4884 3.15341 36.9448 3.24053 37.3842 3.41477C37.8236 3.58523 38.2176 3.84848 38.5661 4.20455C38.9183 4.55682 39.1967 5.00189 39.4013 5.53977C39.6058 6.07386 39.7081 6.70644 39.7081 7.4375V7.9375H32.8899V7.04545H38.674C38.674 6.48485 38.5604 5.98106 38.3331 5.53409C38.1096 5.08333 37.7971 4.72727 37.3956 4.46591C36.9979 4.20455 36.5376 4.07386 36.0149 4.07386C35.4619 4.07386 34.9751 4.22159 34.5547 4.51705C34.1342 4.8125 33.8047 5.20265 33.5661 5.6875C33.3312 6.17235 33.2119 6.70265 33.2081 7.27841V7.8125C33.2081 8.50568 33.3274 9.11174 33.5661 9.63068C33.8085 10.1458 34.1513 10.5455 34.5945 10.8295C35.0376 11.1136 35.5623 11.2557 36.1683 11.2557C36.5812 11.2557 36.9429 11.1913 37.2536 11.0625C37.5679 10.9337 37.8312 10.7614 38.0433 10.5455C38.2592 10.3258 38.4221 10.0852 38.532 9.82386L39.4922 10.1364C39.3596 10.5038 39.1418 10.8428 38.8388 11.1534C38.5395 11.464 38.1645 11.714 37.7138 11.9034C37.2668 12.089 36.7517 12.1818 36.1683 12.1818ZM46.647 12V0.363636H47.6641V4.9375H47.755C47.8686 4.67614 48.0315 4.4072 48.2436 4.13068C48.4595 3.85417 48.7417 3.62311 49.0902 3.4375C49.4425 3.24811 49.8857 3.15341 50.4197 3.15341C51.1357 3.15341 51.7644 3.3428 52.3061 3.72159C52.8478 4.09659 53.2701 4.62311 53.5732 5.30114C53.8762 5.97538 54.0277 6.76136 54.0277 7.65909C54.0277 8.56061 53.8762 9.35038 53.5732 10.0284C53.2739 10.7064 52.8535 11.2348 52.3118 11.6136C51.7739 11.9924 51.1489 12.1818 50.4368 12.1818C49.9065 12.1818 49.4633 12.0871 49.1072 11.8977C48.755 11.7083 48.4709 11.4754 48.255 11.1989C48.0391 10.9186 47.8724 10.6458 47.755 10.3807H47.63V12H46.647ZM47.647 7.64205C47.647 8.34659 47.7512 8.97159 47.9595 9.51705C48.1716 10.0587 48.4747 10.4848 48.8686 10.7955C49.2663 11.1023 49.7474 11.2557 50.3118 11.2557C50.8913 11.2557 51.3819 11.0966 51.7834 10.7784C52.1849 10.4564 52.4898 10.0227 52.6982 9.47727C52.9065 8.93182 53.0107 8.32008 53.0107 7.64205C53.0107 6.97159 52.9065 6.36742 52.6982 5.82955C52.4936 5.29167 52.1906 4.86553 51.7891 4.55114C51.3875 4.23295 50.8951 4.07386 50.3118 4.07386C49.7436 4.07386 49.2607 4.22727 48.8629 4.53409C48.469 4.83712 48.1679 5.25758 47.9595 5.79545C47.7512 6.32955 47.647 6.94508 47.647 7.64205ZM56.6413 15.2727C56.4406 15.2727 56.2531 15.2538 56.0788 15.2159C55.9046 15.178 55.7663 15.1364 55.6641 15.0909L55.9368 14.1989C56.2815 14.3049 56.5883 14.3428 56.8572 14.3125C57.1262 14.286 57.3648 14.1648 57.5732 13.9489C57.7815 13.7367 57.9671 13.411 58.13 12.9716L58.4482 12.0852L55.2379 3.27273H56.3345L58.9254 10.6648H59.005L61.5959 3.27273H62.6925L58.9993 13.3807C58.844 13.8011 58.6527 14.1515 58.4254 14.4318C58.1982 14.7159 57.9349 14.9261 57.6357 15.0625C57.3402 15.2027 57.0088 15.2727 56.6413 15.2727ZM69.1712 12V3.27273H70.1541V4.61364H70.245C70.4193 4.16288 70.709 3.80871 71.1143 3.55114C71.5234 3.28977 72.014 3.15909 72.5859 3.15909C73.1882 3.15909 73.6825 3.30114 74.0689 3.58523C74.459 3.86553 74.7507 4.25189 74.9439 4.74432H75.0178C75.2147 4.25947 75.5348 3.875 75.978 3.59091C76.425 3.30303 76.9666 3.15909 77.603 3.15909C78.4136 3.15909 79.0537 3.41477 79.5234 3.92614C79.9931 4.43371 80.228 5.17614 80.228 6.15341V12H79.2166V6.15341C79.2166 5.46402 79.0405 4.94697 78.6882 4.60227C78.3359 4.25758 77.8719 4.08523 77.2962 4.08523C76.6295 4.08523 76.1162 4.28977 75.7564 4.69886C75.3965 5.10795 75.2166 5.62689 75.2166 6.25568V12H74.1825V6.0625C74.1825 5.47159 74.0178 4.99432 73.6882 4.63068C73.3587 4.26705 72.8946 4.08523 72.2962 4.08523C71.8946 4.08523 71.5329 4.18371 71.2109 4.38068C70.8928 4.57765 70.6409 4.85227 70.4553 5.20455C70.2734 5.55303 70.1825 5.95455 70.1825 6.40909V12H69.1712ZM86.4339 12.1818C85.6196 12.1818 84.915 11.9924 84.3203 11.6136C83.7256 11.2311 83.2654 10.7027 82.9396 10.0284C82.6177 9.35038 82.4567 8.57008 82.4567 7.6875C82.4567 6.80871 82.6177 6.02841 82.9396 5.34659C83.2654 4.66098 83.7143 4.125 84.2862 3.73864C84.862 3.34848 85.5268 3.15341 86.2805 3.15341C86.754 3.15341 87.2105 3.24053 87.6499 3.41477C88.0893 3.58523 88.4832 3.84848 88.8317 4.20455C89.1839 4.55682 89.4624 5.00189 89.6669 5.53977C89.8714 6.07386 89.9737 6.70644 89.9737 7.4375V7.9375H83.1555V7.04545H88.9396C88.9396 6.48485 88.826 5.98106 88.5987 5.53409C88.3752 5.08333 88.0627 4.72727 87.6612 4.46591C87.2635 4.20455 86.8033 4.07386 86.2805 4.07386C85.7275 4.07386 85.2408 4.22159 84.8203 4.51705C84.3999 4.8125 84.0703 5.20265 83.8317 5.6875C83.5968 6.17235 83.4775 6.70265 83.4737 7.27841V7.8125C83.4737 8.50568 83.593 9.11174 83.8317 9.63068C84.0741 10.1458 84.4169 10.5455 84.8601 10.8295C85.3033 11.1136 85.8279 11.2557 86.4339 11.2557C86.8468 11.2557 87.2086 11.1913 87.5192 11.0625C87.8336 10.9337 88.0968 10.7614 88.3089 10.5455C88.5249 10.3258 88.6877 10.0852 88.7976 9.82386L89.7578 10.1364C89.6252 10.5038 89.4074 10.8428 89.1044 11.1534C88.8052 11.464 88.4302 11.714 87.9794 11.9034C87.5324 12.089 87.0173 12.1818 86.4339 12.1818ZM93.2138 0.363636V12H92.2024V0.363636H93.2138ZM96.9013 0.363636V12H95.8899V0.363636H96.9013ZM102.015 12.1989C101.488 12.1989 101.007 12.0966 100.572 11.892C100.136 11.6837 99.7895 11.3845 99.532 10.9943C99.2744 10.6004 99.1456 10.1231 99.1456 9.5625C99.1456 9.13068 99.227 8.76705 99.3899 8.47159C99.5528 8.17614 99.7839 7.93371 100.083 7.74432C100.382 7.55492 100.737 7.4053 101.146 7.29545C101.555 7.18561 102.005 7.10038 102.498 7.03977C102.987 6.97917 103.399 6.92614 103.737 6.88068C104.077 6.83523 104.337 6.76326 104.515 6.66477C104.693 6.56629 104.782 6.4072 104.782 6.1875V5.98295C104.782 5.38826 104.604 4.92045 104.248 4.57955C103.896 4.23485 103.388 4.0625 102.725 4.0625C102.096 4.0625 101.583 4.20076 101.185 4.47727C100.791 4.75379 100.515 5.07955 100.356 5.45455L99.3956 5.10795C99.5926 4.63068 99.8653 4.25 100.214 3.96591C100.562 3.67803 100.952 3.47159 101.384 3.34659C101.816 3.2178 102.254 3.15341 102.697 3.15341C103.03 3.15341 103.377 3.19697 103.737 3.28409C104.1 3.37121 104.437 3.52273 104.748 3.73864C105.058 3.95076 105.31 4.24811 105.504 4.63068C105.697 5.00947 105.793 5.49053 105.793 6.07386V12H104.782V10.6193H104.719C104.598 10.8769 104.418 11.1269 104.18 11.3693C103.941 11.6117 103.642 11.8106 103.282 11.9659C102.922 12.1212 102.5 12.1989 102.015 12.1989ZM102.151 11.2727C102.689 11.2727 103.155 11.1534 103.549 10.9148C103.943 10.6761 104.246 10.3598 104.458 9.96591C104.674 9.56818 104.782 9.13068 104.782 8.65341V7.39205C104.706 7.46402 104.579 7.52841 104.401 7.58523C104.227 7.64205 104.024 7.69318 103.793 7.73864C103.566 7.7803 103.339 7.81629 103.112 7.84659C102.884 7.87689 102.68 7.90341 102.498 7.92614C102.005 7.98674 101.585 8.08144 101.237 8.21023C100.888 8.33902 100.621 8.51705 100.435 8.74432C100.25 8.9678 100.157 9.25568 100.157 9.60795C100.157 10.1383 100.346 10.5492 100.725 10.8409C101.104 11.1288 101.579 11.2727 102.151 11.2727ZM108.484 12V3.27273H109.467V4.61364H109.558C109.732 4.16288 110.022 3.80871 110.427 3.55114C110.836 3.28977 111.326 3.15909 111.898 3.15909C112.501 3.15909 112.995 3.30114 113.381 3.58523C113.772 3.86553 114.063 4.25189 114.256 4.74432H114.33C114.527 4.25947 114.847 3.875 115.29 3.59091C115.737 3.30303 116.279 3.15909 116.915 3.15909C117.726 3.15909 118.366 3.41477 118.836 3.92614C119.306 4.43371 119.54 5.17614 119.54 6.15341V12H118.529V6.15341C118.529 5.46402 118.353 4.94697 118.001 4.60227C117.648 4.25758 117.184 4.08523 116.609 4.08523C115.942 4.08523 115.429 4.28977 115.069 4.69886C114.709 5.10795 114.529 5.62689 114.529 6.25568V12H113.495V6.0625C113.495 5.47159 113.33 4.99432 113.001 4.63068C112.671 4.26705 112.207 4.08523 111.609 4.08523C111.207 4.08523 110.845 4.18371 110.523 4.38068C110.205 4.57765 109.953 4.85227 109.768 5.20455C109.586 5.55303 109.495 5.95455 109.495 6.40909V12H108.484ZM125.61 12.1818C124.856 12.1818 124.19 11.9905 123.61 11.608C123.034 11.2254 122.584 10.697 122.258 10.0227C121.932 9.3447 121.769 8.5625 121.769 7.67614C121.769 6.7822 121.932 5.99621 122.258 5.31818C122.584 4.63636 123.034 4.10606 123.61 3.72727C124.19 3.3447 124.856 3.15341 125.61 3.15341C126.364 3.15341 127.029 3.3447 127.604 3.72727C128.18 4.10985 128.631 4.64015 128.957 5.31818C129.286 5.99621 129.451 6.7822 129.451 7.67614C129.451 8.5625 129.288 9.3447 128.962 10.0227C128.637 10.697 128.184 11.2254 127.604 11.608C127.029 11.9905 126.364 12.1818 125.61 12.1818ZM125.61 11.2557C126.216 11.2557 126.729 11.0928 127.15 10.767C127.57 10.4413 127.888 10.0076 128.104 9.46591C128.324 8.92424 128.434 8.32765 128.434 7.67614C128.434 7.02462 128.324 6.42614 128.104 5.88068C127.888 5.33523 127.57 4.89773 127.15 4.56818C126.729 4.23864 126.216 4.07386 125.61 4.07386C125.008 4.07386 124.495 4.23864 124.07 4.56818C123.65 4.89773 123.33 5.33523 123.11 5.88068C122.894 6.42614 122.786 7.02462 122.786 7.67614C122.786 8.32765 122.894 8.92424 123.11 9.46591C123.33 10.0076 123.65 10.4413 124.07 10.767C124.491 11.0928 125.004 11.2557 125.61 11.2557ZM132.592 8.70455L132.58 7.38068H132.808L136.898 3.27273H138.177L134.137 7.31818L134.046 7.33523L132.592 8.70455ZM131.671 12V0.363636H132.683V12H131.671ZM137.109 12L133.563 7.51705L134.29 6.81818L138.404 12H137.109ZM143.11 12.1818C142.356 12.1818 141.69 11.9905 141.11 11.608C140.534 11.2254 140.084 10.697 139.758 10.0227C139.432 9.3447 139.269 8.5625 139.269 7.67614C139.269 6.7822 139.432 5.99621 139.758 5.31818C140.084 4.63636 140.534 4.10606 141.11 3.72727C141.69 3.3447 142.356 3.15341 143.11 3.15341C143.864 3.15341 144.529 3.3447 145.104 3.72727C145.68 4.10985 146.131 4.64015 146.457 5.31818C146.786 5.99621 146.951 6.7822 146.951 7.67614C146.951 8.5625 146.788 9.3447 146.462 10.0227C146.137 10.697 145.684 11.2254 145.104 11.608C144.529 11.9905 143.864 12.1818 143.11 12.1818ZM143.11 11.2557C143.716 11.2557 144.229 11.0928 144.65 10.767C145.07 10.4413 145.388 10.0076 145.604 9.46591C145.824 8.92424 145.934 8.32765 145.934 7.67614C145.934 7.02462 145.824 6.42614 145.604 5.88068C145.388 5.33523 145.07 4.89773 144.65 4.56818C144.229 4.23864 143.716 4.07386 143.11 4.07386C142.508 4.07386 141.995 4.23864 141.57 4.56818C141.15 4.89773 140.83 5.33523 140.61 5.88068C140.394 6.42614 140.286 7.02462 140.286 7.67614C140.286 8.32765 140.394 8.92424 140.61 9.46591C140.83 10.0076 141.15 10.4413 141.57 10.767C141.991 11.0928 142.504 11.2557 143.11 11.2557ZM155.035 5.1875L154.109 5.44886C154.018 5.1875 153.889 4.95076 153.722 4.73864C153.556 4.52652 153.338 4.35795 153.069 4.23295C152.804 4.10795 152.474 4.04545 152.08 4.04545C151.489 4.04545 151.004 4.18561 150.626 4.46591C150.247 4.74621 150.058 5.10795 150.058 5.55114C150.058 5.92614 150.186 6.23106 150.444 6.46591C150.705 6.69697 151.107 6.88068 151.648 7.01705L152.967 7.34091C153.698 7.51894 154.245 7.80114 154.609 8.1875C154.976 8.57386 155.16 9.05871 155.16 9.64205C155.16 10.1345 155.023 10.572 154.751 10.9545C154.478 11.3371 154.097 11.6383 153.609 11.858C153.124 12.0739 152.561 12.1818 151.921 12.1818C151.069 12.1818 150.366 11.9905 149.813 11.608C149.26 11.2216 148.906 10.6648 148.751 9.9375L149.722 9.69886C149.847 10.2178 150.092 10.6098 150.455 10.875C150.823 11.1402 151.306 11.2727 151.904 11.2727C152.575 11.2727 153.111 11.1231 153.512 10.8239C153.914 10.5208 154.114 10.142 154.114 9.6875C154.114 9.33523 153.997 9.03977 153.762 8.80114C153.527 8.55871 153.171 8.38068 152.694 8.26705L151.268 7.92614C150.51 7.74432 149.95 7.45644 149.586 7.0625C149.222 6.66856 149.04 6.17992 149.04 5.59659C149.04 5.11553 149.171 4.69318 149.433 4.32955C149.694 3.96212 150.054 3.67424 150.512 3.46591C150.97 3.25758 151.493 3.15341 152.08 3.15341C152.879 3.15341 153.518 3.33523 153.995 3.69886C154.476 4.05871 154.823 4.55492 155.035 5.1875ZM160.812 3.27273V4.15341H156.647V3.27273H160.812ZM157.948 1.18182H158.965V9.72159C158.965 10.0852 159.028 10.3712 159.153 10.5795C159.278 10.7841 159.441 10.9299 159.641 11.017C159.842 11.1004 160.056 11.142 160.283 11.142C160.416 11.142 160.53 11.1345 160.624 11.1193C160.719 11.1004 160.802 11.0814 160.874 11.0625L161.09 11.9773C160.992 12.0152 160.871 12.0492 160.727 12.0795C160.583 12.1136 160.405 12.1307 160.192 12.1307C159.821 12.1307 159.463 12.0492 159.119 11.8864C158.778 11.7235 158.497 11.4811 158.278 11.1591C158.058 10.8371 157.948 10.4375 157.948 9.96023V1.18182ZM163.813 15.2727C163.612 15.2727 163.425 15.2538 163.251 15.2159C163.076 15.178 162.938 15.1364 162.836 15.0909L163.109 14.1989C163.453 14.3049 163.76 14.3428 164.029 14.3125C164.298 14.286 164.537 14.1648 164.745 13.9489C164.953 13.7367 165.139 13.411 165.302 12.9716L165.62 12.0852L162.41 3.27273H163.506L166.097 10.6648H166.177L168.768 3.27273H169.864L166.171 13.3807C166.016 13.8011 165.825 14.1515 165.597 14.4318C165.37 14.7159 165.107 14.9261 164.808 15.0625C164.512 15.2027 164.181 15.2727 163.813 15.2727ZM174.015 12.1989C173.488 12.1989 173.007 12.0966 172.572 11.892C172.136 11.6837 171.79 11.3845 171.532 10.9943C171.274 10.6004 171.146 10.1231 171.146 9.5625C171.146 9.13068 171.227 8.76705 171.39 8.47159C171.553 8.17614 171.784 7.93371 172.083 7.74432C172.382 7.55492 172.737 7.4053 173.146 7.29545C173.555 7.18561 174.005 7.10038 174.498 7.03977C174.987 6.97917 175.399 6.92614 175.737 6.88068C176.077 6.83523 176.337 6.76326 176.515 6.66477C176.693 6.56629 176.782 6.4072 176.782 6.1875V5.98295C176.782 5.38826 176.604 4.92045 176.248 4.57955C175.896 4.23485 175.388 4.0625 174.725 4.0625C174.096 4.0625 173.583 4.20076 173.185 4.47727C172.791 4.75379 172.515 5.07955 172.356 5.45455L171.396 5.10795C171.593 4.63068 171.865 4.25 172.214 3.96591C172.562 3.67803 172.952 3.47159 173.384 3.34659C173.816 3.2178 174.254 3.15341 174.697 3.15341C175.03 3.15341 175.377 3.19697 175.737 3.28409C176.1 3.37121 176.437 3.52273 176.748 3.73864C177.058 3.95076 177.31 4.24811 177.504 4.63068C177.697 5.00947 177.793 5.49053 177.793 6.07386V12H176.782V10.6193H176.719C176.598 10.8769 176.418 11.1269 176.18 11.3693C175.941 11.6117 175.642 11.8106 175.282 11.9659C174.922 12.1212 174.5 12.1989 174.015 12.1989ZM174.151 11.2727C174.689 11.2727 175.155 11.1534 175.549 10.9148C175.943 10.6761 176.246 10.3598 176.458 9.96591C176.674 9.56818 176.782 9.13068 176.782 8.65341V7.39205C176.706 7.46402 176.579 7.52841 176.401 7.58523C176.227 7.64205 176.024 7.69318 175.793 7.73864C175.566 7.7803 175.339 7.81629 175.112 7.84659C174.884 7.87689 174.68 7.90341 174.498 7.92614C174.005 7.98674 173.585 8.08144 173.237 8.21023C172.888 8.33902 172.621 8.51705 172.435 8.74432C172.25 8.9678 172.157 9.25568 172.157 9.60795C172.157 10.1383 172.346 10.5492 172.725 10.8409C173.104 11.1288 173.579 11.2727 174.151 11.2727Z" fill="url(#paint0_linear_6_4798)"/>
<defs>
<linearGradient id="paint0_linear_6_4798" x1="179.5" y1="14" x2="45.1269" y2="-73.5575" gradientUnits="userSpaceOnUse">
<stop offset="0.18" stop-color="#E75A2A"/>
<stop offset="1" stop-color="#C2369F"/>
</linearGradient>
</defs>
</svg>
