<svg width="16" height="16" viewBox="0 0 16 16" fill="none" xmlns="http://www.w3.org/2000/svg">
<g clip-path="url(#clip0_92_246)">
<path d="M4.46562 4.46562C3.91875 5.01249 3.525 5.65312 3.28437 6.33437C3.1 6.85624 2.52813 7.12812 2.00938 6.94374C1.49063 6.75937 1.21562 6.18749 1.4 5.66874C1.7375 4.70937 2.2875 3.81249 3.05 3.04999C5.775 0.324995 10.1844 0.31562 12.9187 3.01874L14.2188 1.71874C14.4344 1.50312 14.7563 1.44062 15.0375 1.55624C15.3188 1.67187 15.5 1.94687 15.5 2.24999V6.24999C15.5 6.66562 15.1656 6.99999 14.75 6.99999H14.4875H10.75C10.4469 6.99999 10.1719 6.81874 10.0562 6.53749C9.94062 6.25624 10.0031 5.93437 10.2188 5.71874L11.5031 4.43437C9.54688 2.51249 6.40625 2.52187 4.4625 4.46562H4.46562ZM0.5 9.75C0.5 9.33437 0.834375 9 1.25 9H1.4875H1.50937H5.25C5.55312 9 5.82812 9.18124 5.94375 9.46249C6.05937 9.74374 5.99688 10.0656 5.78125 10.2812L4.49687 11.5656C6.45312 13.4875 9.59375 13.4781 11.5375 11.5344C12.0844 10.9875 12.4781 10.3469 12.7188 9.66562C12.9031 9.14374 13.475 8.87187 13.9937 9.05624C14.5125 9.24062 14.7875 9.8125 14.6031 10.3312C14.2656 11.2875 13.7156 12.1844 12.95 12.95C10.225 15.675 5.81562 15.6844 3.08125 12.9812L1.78125 14.2812C1.56562 14.4969 1.24375 14.5594 0.9625 14.4437C0.68125 14.3281 0.5 14.0531 0.5 13.75V10.0125V9.99062V9.75312V9.75Z" fill="#ECECEC"/>
</g>
<defs>
<clipPath id="clip0_92_246">
<rect width="16" height="16" fill="white"/>
</clipPath>
</defs>
</svg>
