<svg width="16" height="14" viewBox="0 0 16 14" fill="none" xmlns="http://www.w3.org/2000/svg">
<g clip-path="url(#clip0_7_244)">
<path d="M2.67539 6.11953L0.25 10.2758V2.625C0.25 1.65977 1.03477 0.875 2 0.875H5.21289C5.67773 0.875 6.12344 1.0582 6.45156 1.38633L7.17617 2.11094C7.5043 2.43906 7.95 2.62227 8.41484 2.62227L11.625 2.625C12.5902 2.625 13.375 3.40977 13.375 4.375V5.25H4.1875C3.56406 5.25 2.98984 5.58086 2.67539 6.11953ZM3.43008 6.55977C3.58867 6.28906 3.87578 6.125 4.1875 6.125H15.125C15.4395 6.125 15.7266 6.2918 15.8824 6.56523C16.0383 6.83867 16.0383 7.17227 15.8797 7.44297L12.8172 12.693C12.6613 12.9609 12.3742 13.125 12.0625 13.125H1.125C0.810547 13.125 0.523438 12.9582 0.367578 12.6848C0.211719 12.4113 0.211719 12.0777 0.370313 11.807L3.43281 6.55703L3.43008 6.55977Z" fill="#ECECEC"/>
</g>
<defs>
<clipPath id="clip0_7_244">
<rect width="15.75" height="14" fill="white" transform="translate(0.25)"/>
</clipPath>
</defs>
</svg>
