<svg width="12" height="16" viewBox="0 0 12 16" fill="none" xmlns="http://www.w3.org/2000/svg">
<path d="M10.7062 4.70624C11.0968 4.31562 11.0968 3.68124 10.7062 3.29062C10.3155 2.89999 9.68115 2.89999 9.29053 3.29062L5.9999 6.58437L2.70615 3.29374C2.31553 2.90312 1.68115 2.90312 1.29053 3.29374C0.899902 3.68437 0.899902 4.31874 1.29053 4.70937L4.58428 7.99999L1.29365 11.2937C0.903027 11.6844 0.903027 12.3187 1.29365 12.7094C1.68428 13.1 2.31865 13.1 2.70928 12.7094L5.9999 9.41562L9.29365 12.7062C9.68428 13.0969 10.3187 13.0969 10.7093 12.7062C11.0999 12.3156 11.0999 11.6812 10.7093 11.2906L7.41553 7.99999L10.7062 4.70624Z" fill="#ECECEC"/>
</svg>
